<svg width="38" height="44" viewBox="0 0 38 44" fill="none" xmlns="http://www.w3.org/2000/svg">
<path d="M11.4853 0.326475C11.2706 0.327844 11.0596 0.382151 10.8714 0.484492C10.2534 0.823744 10.0267 1.61006 10.3691 2.22167L11.7644 4.71687C8.40271 6.77662 6.17523 10.2951 6.17523 14.3108V15.0569C5.52953 14.3213 4.58054 13.8568 3.5202 13.8568C1.5774 13.8568 0 15.419 0 17.3429V28.0819C0 30.0057 1.57754 31.568 3.5202 31.568C4.58054 31.568 5.52953 31.1034 6.17508 30.3677V31.872C6.17508 33.9001 7.85079 35.5595 9.89865 35.5595H10.8434V40.3367C10.8434 42.2608 12.4209 43.823 14.3636 43.823C16.3062 43.823 17.8836 42.2607 17.8836 40.3367V35.5595H19.5182V40.3367C19.5182 42.2608 21.0957 43.823 23.0384 43.823C24.981 43.823 26.5584 42.2607 26.5584 40.3367V35.5595H27.5033C29.551 35.5595 31.2267 33.9001 31.2267 31.872V30.3677C31.8723 31.1034 32.8214 31.568 33.8818 31.568C35.8244 31.568 37.4018 30.0057 37.4018 28.0819V17.3429C37.4018 15.419 35.8244 13.8568 33.8818 13.8568C32.8214 13.8568 31.8723 14.3213 31.2267 15.0569V14.4371V14.4015C31.227 14.3638 31.2267 14.3336 31.2267 14.3108C31.2267 10.2958 28.9941 6.78082 25.6336 4.72093L27.0329 2.22167C27.3751 1.61006 27.1486 0.823744 26.5306 0.484492C26.3424 0.382151 26.1314 0.327844 25.9167 0.326475C25.4603 0.322122 25.0124 0.560382 24.7765 0.981907L23.3134 3.59958C21.8828 3.07677 20.3262 2.79019 18.7011 2.79019C17.0774 2.79019 15.5178 3.07372 14.0884 3.59551L12.6255 0.981907C12.3894 0.560382 11.9417 0.322412 11.4853 0.326475Z" fill="white"/>
<path d="M3.52015 14.7649C2.07052 14.7649 0.916992 15.9073 0.916992 17.3429V28.0819C0.916992 29.5176 2.07052 30.66 3.52015 30.66C4.96978 30.66 6.12345 29.5176 6.12345 28.0819V17.3429C6.12345 15.9073 4.96978 14.7649 3.52015 14.7649ZM33.8819 14.7649C32.4321 14.7649 31.2786 15.9073 31.2786 17.3429V28.0819C31.2786 29.5176 32.4321 30.66 33.8819 30.66C35.3315 30.66 36.485 29.5176 36.485 28.0819V17.3429C36.485 15.9073 35.3315 14.7649 33.8819 14.7649Z" fill="#A4C639"/>
<path d="M14.364 27.0198C12.9144 27.0198 11.7607 28.1622 11.7607 29.598V40.3368C11.7607 41.7725 12.9144 42.9149 14.364 42.9149C15.8137 42.9149 16.9672 41.7725 16.9672 40.3368V29.598C16.9672 28.1622 15.8137 27.0198 14.364 27.0198ZM23.0388 27.0198C21.5891 27.0198 20.4355 28.1622 20.4355 29.598V40.3368C20.4355 41.7725 21.5891 42.9149 23.0388 42.9149C24.4885 42.9149 25.642 41.7725 25.642 40.3368V29.598C25.642 28.1622 24.4885 27.0198 23.0388 27.0198Z" fill="#A4C639"/>
<path d="M11.4929 1.23467C11.4313 1.2354 11.3709 1.25169 11.3175 1.28197C11.1318 1.38384 11.0709 1.59511 11.1739 1.77939L13.0078 5.06033C9.47973 6.87847 7.09649 10.3335 7.0918 14.2989H30.3095C30.3047 10.3335 27.9216 6.87833 24.3935 5.06033L26.2273 1.77953C26.3304 1.59525 26.2693 1.38384 26.0837 1.28197C26.0303 1.25167 25.9699 1.23539 25.9083 1.23467C25.7765 1.23322 25.6518 1.29852 25.5814 1.42418L23.7236 4.74052C22.2039 4.07304 20.4994 3.69824 18.7006 3.69824C16.9018 3.69824 15.1974 4.0729 13.6776 4.74052L11.8197 1.42418C11.7881 1.36596 11.7408 1.31749 11.6832 1.28407C11.6256 1.25065 11.5598 1.23356 11.493 1.23467H11.4929ZM7.0918 15.207V31.8721C7.09101 32.2374 7.16306 32.5991 7.30383 32.9367C7.44459 33.2743 7.65129 33.581 7.91206 33.8392C8.17283 34.0975 8.48253 34.3021 8.82339 34.4415C9.16425 34.5809 9.52955 34.6523 9.89832 34.6514H27.503C27.8718 34.6523 28.2371 34.5809 28.578 34.4415C28.9188 34.3021 29.2286 34.0974 29.4893 33.8392C29.7501 33.5809 29.9568 33.2742 30.0975 32.9366C30.2383 32.599 30.3103 32.2372 30.3095 31.872V15.2071H7.0918V15.207Z" fill="#A4C639"/>
<path d="M13.3428 8.17139C12.8128 8.17139 12.374 8.60583 12.374 9.13067C12.374 9.65565 12.8128 10.0901 13.3428 10.0901C13.8729 10.0901 14.3116 9.65565 14.3116 9.13067C14.3116 8.60583 13.8729 8.17139 13.3428 8.17139ZM24.0587 8.17139C23.5286 8.17139 23.0899 8.60583 23.0899 9.13067C23.0899 9.65565 23.5286 10.0901 24.0587 10.0901C24.5886 10.0901 25.0275 9.65565 25.0275 9.13067C25.0275 8.60583 24.5886 8.17139 24.0587 8.17139Z" fill="white"/>
</svg>
