<svg width="24" height="29" viewBox="0 0 24 29" fill="none" xmlns="http://www.w3.org/2000/svg">
<path d="M3.6 11.4974V18.6821C3.6 19.637 2.844 20.4004 1.881 20.4004C0.925 20.4004 0 19.6311 0 18.6821V11.4974C0 10.5603 0.925 9.79104 1.881 9.79104C2.825 9.79104 3.6 10.5603 3.6 11.4974ZM4.275 21.2382C4.275 22.2556 5.1 23.0746 6.125 23.0746H7.369L7.388 26.8654C7.388 29.1545 10.838 29.1366 10.838 26.8654V23.0746H13.163V26.8654C13.163 29.1426 16.632 29.1485 16.632 26.8654V23.0746H17.894C18.1361 23.0738 18.3757 23.0256 18.5991 22.9329C18.8224 22.8402 19.0252 22.7047 19.1958 22.5342C19.3664 22.3636 19.5015 22.1614 19.5933 21.939C19.6851 21.7167 19.7319 21.4785 19.731 21.2382V10.1087H4.275V21.2382ZM19.775 9.50615H4.206C4.206 6.85084 5.806 4.54295 8.181 3.33987L6.987 1.15011C6.812 0.846361 7.256 0.653789 7.406 0.913861L8.618 3.12248C10.799 2.16062 13.306 2.21025 15.387 3.12248L16.593 0.919816C16.749 0.652796 17.187 0.851324 17.012 1.15606L15.818 3.33987C18.174 4.54295 19.774 6.85183 19.774 9.50615H19.775ZM9.106 6.06269C9.106 5.88998 9.03689 5.72436 8.91386 5.60224C8.79084 5.48012 8.62398 5.41151 8.45 5.41151C8.094 5.41151 7.813 5.70931 7.813 6.06269C7.813 6.41607 8.101 6.71386 8.45 6.71386C8.819 6.71386 9.106 6.41607 9.106 6.06269ZM16.194 6.06269C16.1948 5.89281 16.1284 5.7294 16.0091 5.60761C15.8898 5.48583 15.7271 5.41541 15.556 5.41151C15.382 5.41151 15.2152 5.48012 15.0921 5.60224C14.9691 5.72436 14.9 5.88998 14.9 6.06269C14.9 6.23539 14.9691 6.40101 15.0921 6.52313C15.2152 6.64525 15.382 6.71386 15.556 6.71386C15.906 6.71386 16.194 6.41607 16.194 6.06269ZM22.119 9.79203C21.175 9.79203 20.4 10.5425 20.4 11.4984V18.6831C20.4 19.638 21.175 20.4014 22.119 20.4014C23.082 20.4014 24 19.6321 24 18.6831V11.4984C24 10.5435 23.075 9.79203 22.119 9.79203Z" fill="black"/>
</svg>
