<svg width="32" height="32" viewBox="0 0 32 32" fill="none" xmlns="http://www.w3.org/2000/svg">
<path d="M7.6 12.7809V20.0189C7.6 20.9809 6.844 21.7499 5.881 21.7499C4.925 21.7499 4 20.9749 4 20.0189V12.7809C4 11.8369 4.925 11.0619 5.881 11.0619C6.825 11.0619 7.6 11.8369 7.6 12.7809ZM8.275 22.5939C8.275 23.6189 9.1 24.4439 10.125 24.4439H11.369L11.388 28.2629C11.388 30.5689 14.838 30.5509 14.838 28.2629V24.4439H17.163V28.2629C17.163 30.5569 20.632 30.5629 20.632 28.2629V24.4439H21.894C22.1361 24.4431 22.3757 24.3946 22.5991 24.3012C22.8224 24.2078 23.0252 24.0713 23.1958 23.8995C23.3664 23.7277 23.5015 23.5239 23.5933 23.2999C23.6851 23.0759 23.7319 22.836 23.731 22.5939V11.3819H8.275V22.5939ZM23.775 10.7749H8.206C8.206 8.09986 9.806 5.77487 12.181 4.56287L10.987 2.35687C10.812 2.05087 11.256 1.85687 11.406 2.11887L12.618 4.34387C14.799 3.37487 17.306 3.42487 19.387 4.34387L20.593 2.12487C20.749 1.85587 21.187 2.05587 21.012 2.36287L19.818 4.56287C22.174 5.77487 23.774 8.10087 23.774 10.7749H23.775ZM13.106 7.30587C13.106 7.13188 13.0369 6.96503 12.9139 6.842C12.7908 6.71898 12.624 6.64987 12.45 6.64987C12.094 6.64987 11.813 6.94987 11.813 7.30587C11.813 7.66187 12.101 7.96187 12.45 7.96187C12.819 7.96187 13.106 7.66187 13.106 7.30587ZM20.194 7.30587C20.1948 7.13473 20.1284 6.97011 20.0091 6.84742C19.8898 6.72474 19.7271 6.6538 19.556 6.64987C19.382 6.64987 19.2152 6.71898 19.0921 6.842C18.9691 6.96503 18.9 7.13188 18.9 7.30587C18.9 7.47985 18.9691 7.6467 19.0921 7.76973C19.2152 7.89275 19.382 7.96187 19.556 7.96187C19.906 7.96187 20.194 7.66187 20.194 7.30587ZM26.119 11.0629C25.175 11.0629 24.4 11.8189 24.4 12.7819V20.0199C24.4 20.9819 25.175 21.7509 26.119 21.7509C27.082 21.7509 28 20.9759 28 20.0199V12.7819C28 11.8199 27.075 11.0629 26.119 11.0629Z" fill="white"/>
</svg>
