<svg width="60" height="60" viewBox="0 0 60 60" fill="none" xmlns="http://www.w3.org/2000/svg">
<circle opacity="0.1" cx="30" cy="30" r="30" fill="#979797"/>
<path d="M36.0817 30.6745C36.1138 34.0407 39.1097 35.1609 39.1429 35.1752C39.1175 35.2541 38.6641 36.7715 37.5645 38.3387C36.6139 39.6938 35.6272 41.0438 34.0729 41.0718C32.5459 41.0992 32.0547 40.1886 30.3087 40.1886C28.5632 40.1886 28.0176 41.0438 26.572 41.0992C25.0717 41.1546 23.9293 39.634 22.9708 38.2839C21.0121 35.5224 19.5153 30.4804 21.5252 27.077C22.5236 25.3868 24.308 24.3166 26.2446 24.2891C27.7178 24.2617 29.1083 25.2557 30.0089 25.2557C30.9089 25.2557 32.5987 24.0604 34.3751 24.2359C35.1187 24.2661 37.2062 24.5288 38.5466 26.4423C38.4385 26.5076 36.0558 27.8604 36.0817 30.6746V30.6745ZM33.2116 22.4089C34.0082 21.4687 34.5442 20.1598 34.3979 18.8574C33.2498 18.9024 31.8616 19.6035 31.0381 20.5432C30.3001 21.3754 29.6538 22.7073 29.8282 23.9839C31.1079 24.0805 32.4151 23.3497 33.2117 22.4089" fill="black"/>
</svg>
