<svg width="32" height="44" viewBox="0 0 32 44" fill="none" xmlns="http://www.w3.org/2000/svg">
<path d="M22.3887 24.3247H29.4671L25.9279 19.9365L22.3887 24.3247Z" fill="black"/>
<path d="M22.8318 0H9.02344C4.04779 0 0 4.04779 0 9.02344V34.9766C0 39.9522 4.04779 44 9.02344 44H22.8318C27.8075 44 31.8553 39.9522 31.8553 34.9766V9.02344C31.8553 4.04779 27.8075 0 22.8318 0ZM24.9887 29.119C24.7507 29.3114 24.4643 29.4047 24.1803 29.4047C23.804 29.4047 23.4311 29.2409 23.1763 28.925L21.5458 26.9031H10.3095L8.67902 28.925C8.42456 29.2409 8.05127 29.4047 7.67496 29.4047C7.39062 29.4047 7.10495 29.3114 6.86661 29.119C6.31238 28.6722 6.22543 27.8605 6.67224 27.3066L7.23621 26.6071C6.9512 26.3707 6.76926 26.0135 6.76926 25.6141C6.76926 24.9024 7.34631 24.325 8.05832 24.325H9.07681L14.2717 17.8834L12.0474 15.125C11.6002 14.5708 11.6872 13.7594 12.2414 13.3123C12.7956 12.8654 13.6073 12.9524 14.0541 13.5066L15.9276 15.83L17.8015 13.5066C18.2483 12.9524 19.0597 12.8654 19.6139 13.3123C20.1681 13.7594 20.2551 14.5708 19.8083 15.125L17.5836 17.8834L22.7788 24.325H23.797C24.509 24.325 25.086 24.9024 25.086 25.6141C25.086 26.0135 24.9044 26.3707 24.6191 26.6071L25.183 27.3066C25.6299 27.8605 25.5432 28.6722 24.9887 29.119Z" fill="black"/>
</svg>
