<svg width="32" height="44" viewBox="0 0 32 44" fill="none" xmlns="http://www.w3.org/2000/svg">
<path d="M26.4232 0H23.7153L23.3183 3.72281C23.078 5.73349 20.9004 8.16406 17.8888 8.16406H13.5644C11.0043 8.16406 8.78453 6.40836 8.16492 3.89383C8.13476 3.77128 8.16561 4.0113 7.73781 0H5.02992C2.25672 0 0 2.25672 0 5.02992V38.9701C0 41.7433 2.25672 44 5.02992 44H26.4232C29.1964 44 31.4531 41.7433 31.4531 38.9701V5.02992C31.4531 2.25672 29.1964 0 26.4232 0ZM16.4141 34.2891H6.78906C5.08372 34.2891 5.0832 31.7109 6.78906 31.7109H16.4141C18.1194 31.7109 18.1199 34.2891 16.4141 34.2891ZM16.4141 28.7891H6.78906C5.08372 28.7891 5.0832 26.2109 6.78906 26.2109H16.4141C18.1194 26.2109 18.1199 28.7891 16.4141 28.7891ZM16.4141 23.2891H6.78906C5.08372 23.2891 5.0832 20.7109 6.78906 20.7109H16.4141C18.1194 20.7109 18.1199 23.2891 16.4141 23.2891ZM16.4141 17.7891H6.78906C5.08372 17.7891 5.0832 15.2109 6.78906 15.2109H16.4141C18.1194 15.2109 18.1199 17.7891 16.4141 17.7891ZM25.9471 33.1272C25.7702 34.8286 23.2085 34.5614 23.381 32.8728C23.5562 31.1895 26.0845 31.4116 25.9471 33.1272ZM25.9471 27.6272C25.7696 29.3337 23.2097 29.0593 23.3819 27.3728C23.5195 25.7183 26.0896 25.8837 25.9471 27.6272ZM25.5759 22.9118C25.0583 23.4146 24.2711 23.4157 23.7523 22.9118C22.9879 22.1447 23.4514 20.83 24.5369 20.717C25.7354 20.5954 26.4297 22.0549 25.5759 22.9118ZM25.9471 16.6272C25.7697 18.3323 23.2089 18.0587 23.381 16.3728C23.5591 14.6611 26.1188 14.9463 25.9471 16.6272ZM10.3314 0L10.6889 3.355C11.049 4.67242 12.2203 5.58594 13.5644 5.58594H17.8888C19.2328 5.58594 20.4041 4.67242 20.7642 3.355L21.1217 0H10.3314Z" fill="black"/>
</svg>
