<svg width="22" height="26" viewBox="0 0 22 26" fill="none" xmlns="http://www.w3.org/2000/svg">
<g clip-path="url(#clip0)">
<path d="M18.0944 13.7866C18.1318 17.7138 21.627 19.0207 21.6657 19.0374C21.6361 19.1295 21.1072 20.8997 19.8243 22.7282C18.7152 24.3091 17.5641 25.8841 15.7508 25.9167C13.9692 25.9487 13.3962 24.8864 11.3592 24.8864C9.32283 24.8864 8.68628 25.8841 6.99967 25.9488C5.24941 26.0134 3.91657 24.2394 2.79836 22.6642C0.513206 19.4425 -1.23308 13.5601 1.11175 9.58946C2.27659 7.61759 4.35836 6.36901 6.61779 6.33699C8.33648 6.30504 9.95878 7.46464 11.0094 7.46464C12.0594 7.46464 14.0308 6.07014 16.1033 6.27492C16.9708 6.31016 19.4063 6.61663 20.9701 8.849C20.844 8.92518 18.0641 10.5034 18.0944 13.7867V13.7866ZM14.7459 4.14341C15.6752 3.04646 16.3006 1.51947 16.13 0C14.7905 0.0524953 13.1709 0.870464 12.2102 1.96676C11.3492 2.93767 10.5951 4.49156 10.7986 5.98091C12.2916 6.09358 13.8167 5.24102 14.746 4.14341" fill="white"/>
</g>
<defs>
<clipPath id="clip0">
<rect width="21.6667" height="26" fill="white"/>
</clipPath>
</defs>
</svg>
