<svg width="28" height="44" viewBox="0 0 28 44" fill="none" xmlns="http://www.w3.org/2000/svg">
<mask id="mask0" mask-type="alpha" maskUnits="userSpaceOnUse" x="0" y="0" width="28" height="44">
<rect width="28" height="44" rx="6" fill="black"/>
</mask>
<g mask="url(#mask0)">
<path d="M26.31 0H1.69001C0.755996 0 0 0.744428 0 1.66414V42.3358C0 43.2545 0.755996 44 1.69001 44H26.31C27.244 44 28 43.2545 28 42.3358V1.66525C28 0.745537 27.2429 0 26.31 0ZM13.8885 14.2728C14.4867 13.22 15.3971 12.5698 16.5812 12.2847C16.7277 12.2492 16.8786 12.2381 17.0465 12.2126C17.051 12.3335 17.0589 12.4367 17.0612 12.541C17.0848 13.8324 16.2387 15.5209 14.6185 16.1544C14.2625 16.2931 13.8941 16.3652 13.5099 16.3563C13.4389 16.3552 13.4108 16.3364 13.404 16.2598C13.342 15.5442 13.5381 14.8874 13.8885 14.2728ZM20.6575 25.792C20.2057 26.9969 19.5184 28.0653 18.6869 29.0493C18.5258 29.2379 18.3388 29.411 18.1473 29.573C17.7619 29.8903 17.3259 30.0822 16.8144 30.1022C16.4325 30.1166 16.0652 30.0456 15.7125 29.9047C15.4545 29.8026 15.2044 29.6861 14.9441 29.5929C14.1003 29.2934 13.2632 29.3322 12.4351 29.6551C12.1354 29.7704 11.8413 29.9002 11.5371 30.0012C11.1845 30.1177 10.8183 30.1654 10.4465 30.0966C10.1209 30.0356 9.83583 29.888 9.57331 29.6961C9.24433 29.4576 8.96942 29.1669 8.71254 28.8574C7.49235 27.3929 6.67439 25.7388 6.2778 23.886C6.1088 23.0895 6.02768 22.284 6.07613 21.4686C6.13584 20.4923 6.36568 19.5604 6.89635 18.7216C7.56221 17.6677 8.50072 16.9776 9.73668 16.6925C10.4792 16.5216 11.2014 16.5904 11.91 16.8589C12.283 16.9998 12.657 17.1385 13.0311 17.276C13.3758 17.4036 13.7195 17.4036 14.0642 17.2738C14.4462 17.1307 14.827 16.9865 15.2134 16.8478C15.6044 16.7069 16.0055 16.5926 16.4223 16.5582C17.0465 16.5094 17.656 16.5882 18.2464 16.7835C19.0869 17.0608 19.7708 17.5501 20.2868 18.2623C20.3026 18.2823 20.315 18.3034 20.3263 18.32C19.0249 19.2131 18.2847 20.3935 18.3918 21.99C18.4999 23.5854 19.3731 24.6682 20.8073 25.3693C20.76 25.5036 20.7116 25.6489 20.6575 25.792Z" fill="black"/>
</g>
</svg>
