<svg width="22" height="27" viewBox="0 0 22 27" fill="none" xmlns="http://www.w3.org/2000/svg">
<path d="M18.0944 14.7002C18.1318 18.6274 21.627 19.9343 21.6657 19.9509C21.6361 20.0431 21.1072 21.8133 19.8243 23.6418C18.7152 25.2227 17.5641 26.7977 15.7508 26.8303C13.9692 26.8623 13.3962 25.8 11.3592 25.8C9.32283 25.8 8.68628 26.7977 6.99967 26.8623C5.24941 26.927 3.91657 25.1529 2.79836 23.5778C0.513206 20.3561 -1.23308 14.4737 1.11175 10.503C2.27659 8.53116 4.35836 7.28259 6.61779 7.25056C8.33648 7.21862 9.95878 8.37822 11.0094 8.37822C12.0594 8.37822 14.0308 6.98371 16.1033 7.18849C16.9708 7.22373 19.4063 7.5302 20.9701 9.76257C20.844 9.83876 18.0641 11.417 18.0944 14.7003V14.7002ZM14.7459 5.05698C15.6752 3.96003 16.3006 2.43305 16.13 0.913574C14.7905 0.966069 13.1709 1.78404 12.2102 2.88033C11.3492 3.85124 10.5951 5.40514 10.7986 6.89448C12.2916 7.00715 13.8167 6.1546 14.746 5.05698" fill="black"/>
</svg>
