<svg width="60" height="60" viewBox="0 0 60 60" fill="none" xmlns="http://www.w3.org/2000/svg">
<circle opacity="0.1" cx="30" cy="30" r="30" fill="#979797"/>
<path d="M34.4809 33.7029C37.0195 32.3091 38.9439 31.2469 39.1098 31.1644C39.6404 30.8822 40.1884 30.1353 39.1098 29.5552C38.7615 29.3727 36.8865 28.3437 34.4809 27.0166L31.146 30.3846L34.4809 33.7029V33.7029Z" fill="#FFD900"/>
<path d="M31.1457 30.3848L20.5271 41.0868C20.7763 41.1198 21.0577 41.0537 21.3895 40.8713C22.086 40.4901 29.4696 36.4578 34.4806 33.7039L31.1457 30.3848Z" fill="#F43249"/>
<path d="M31.1459 30.3847L34.4808 27.0333C34.4808 27.0333 22.1365 20.2965 21.3896 19.8988C21.1082 19.7322 20.7929 19.6827 20.5107 19.7322L31.1459 30.3847V30.3847Z" fill="#00EE76"/>
<path d="M31.1459 30.3844L20.5107 19.7319C20.0791 19.8317 19.7144 20.2131 19.7144 20.9929V39.8254C19.7144 40.5392 19.9966 41.0534 20.5272 41.1029L31.1459 30.3844Z" fill="#00D3FF"/>
</svg>
