<svg width="36" height="36" viewBox="0 0 36 36" fill="none" xmlns="http://www.w3.org/2000/svg">
<path d="M30.9469 16.3755L7.72878 3.08528C7.38967 2.88858 7.00438 2.78551 6.61235 2.78663C6.22032 2.78775 5.83563 2.89301 5.49765 3.09165C5.16389 3.28162 4.8866 3.55685 4.69414 3.88918C4.50169 4.22152 4.401 4.59902 4.40236 4.98305V31.5922C4.401 31.9762 4.50169 32.3537 4.69414 32.6861C4.8866 33.0184 5.16389 33.2936 5.49765 33.4836C5.83564 33.6822 6.22033 33.7875 6.61235 33.7886C7.00438 33.7897 7.38966 33.6867 7.72878 33.49L30.9469 20.1998C31.2896 20.0117 31.5754 19.735 31.7745 19.3986C31.9736 19.0622 32.0787 18.6785 32.0787 18.2876C32.0787 17.8967 31.9736 17.513 31.7745 17.1766C31.5754 16.8402 31.2896 16.5635 30.9469 16.3755ZM6.61633 30.0325V6.54275L18.3613 18.2876L6.61633 30.0325ZM19.9268 19.8531L22.5362 22.4626L10.3323 29.4477L19.9268 19.8531ZM10.3308 7.12589L22.5363 14.1125L19.9268 16.7221L10.3308 7.12589ZM24.5276 21.3227L21.4924 18.2876L24.5278 15.2524L29.8306 18.2876L24.5276 21.3227Z" fill="white"/>
</svg>
