<svg width="346" height="328" viewBox="0 0 346 328" fill="none" xmlns="http://www.w3.org/2000/svg">
<path fill-rule="evenodd" clip-rule="evenodd" d="M18.5567 140.703C15.0262 183.216 -13.504 226.733 7.95887 263.353C32.1069 304.553 81.1966 325.239 128.188 327.752C177.509 330.39 223.529 308.869 261.721 276.924C304.885 240.819 329.863 196.863 320.64 140.703C311.486 84.9692 270.557 73.2252 223.398 43.5766C192.627 24.2309 164.315 1.27956 128.188 0.110182C90.8616 -1.09802 49.987 7.39655 26.7383 37.211C4.78234 65.3677 21.5338 104.853 18.5567 140.703Z" fill="#E2E2FE"/>
<path d="M119.032 92.1044C120.243 72.3921 124.917 61.7649 127.102 58.9153L142.738 61.9325L158.878 70.4812L170.982 106.688V113.728L161.399 136.86L136.685 134.345V117.248C127.102 115.739 117.519 116.745 119.032 92.1044Z" fill="#FFBF98"/>
<path d="M39.3418 164.517C41.3593 158.483 45.5624 154.627 47.4117 153.454L48.4205 157.477L39.3418 164.517Z" fill="#3629C4"/>
<path d="M39.342 107.693C40.5525 94.4176 45.8988 86.4053 48.4206 84.0586L61.0299 88.0815L70.1085 112.722C68.091 134.848 76.6653 145.743 81.2047 148.425L70.1085 161.5L48.4206 150.94C44.8901 142.056 38.1315 120.969 39.342 107.693Z" fill="#FFBF98"/>
<path d="M47.9163 87.0758C46.9076 81.5443 58.0037 75.5099 59.5168 70.9841L78.6828 94.116C75.4549 96.5297 71.7898 108.196 70.6129 112.722C65.8923 109.156 55.5003 114.8 56.4905 102.162C56.8261 97.8784 57.4992 96.6303 58.0037 95.6246L47.9163 87.0758Z" fill="#3629C4"/>
<path d="M58.5081 56.5285C58.5081 53.7471 60.4367 51.3351 63.1563 50.7154L81.2676 46.588C84.076 45.948 86.7528 48.0756 86.7528 50.9479V98.5142C86.7528 101.296 84.8241 103.708 82.1046 104.327L65.8217 108.038C62.0771 108.891 58.5081 106.055 58.5081 102.225V56.5285Z" fill="#09025D"/>
<path d="M60.5254 56.9965C60.5254 54.9349 61.9389 53.1404 63.9478 52.6517L82.0446 48.2492C83.9278 47.7911 85.7439 49.213 85.7439 51.1458V97.8809C85.7439 100.63 83.8592 103.022 81.1807 103.674L66.0744 107.349C63.2495 108.036 60.5254 105.903 60.5254 103.004V56.9965Z" fill="white"/>
<path d="M65.5691 52.2573L80.1958 48.699V49.5336C80.1958 50.908 79.2535 52.1043 77.9142 52.4301L68.6639 54.6805C67.0884 55.0638 65.5691 53.8742 65.5691 52.2573Z" fill="#09025D"/>
<path fill-rule="evenodd" clip-rule="evenodd" d="M68.0158 83.6386C68.1948 84.1092 68.7431 84.2632 69.2404 83.9824L71.2885 82.8266C71.2885 82.8266 71.2885 82.8266 71.2885 82.8266C71.0444 82.1846 71.3966 81.3537 72.0751 80.9708C72.7536 80.5878 73.5016 80.7978 73.7457 81.4398C73.7457 81.4398 73.7457 81.4398 73.7457 81.4398L75.7938 80.2839C76.2911 80.0032 76.5493 79.3942 76.3703 78.9236L71.4784 66.059C71.2995 65.5884 70.7512 65.4344 70.2538 65.7152L68.2058 66.871C68.4499 67.513 68.0977 68.3439 67.4192 68.7268C66.7406 69.1098 65.9927 68.8998 65.7485 68.2578L63.7005 69.4137C63.2031 69.6944 62.9449 70.3034 63.1239 70.774L68.0158 83.6386Z" fill="#FE6677"/>
<path fill-rule="evenodd" clip-rule="evenodd" d="M70.1271 76.6853C69.8996 77.2159 70.1019 77.757 70.579 77.8939L72.5435 78.4577C72.5435 78.4577 72.5435 78.4577 72.5435 78.4577C72.854 77.7339 73.6333 77.2985 74.2841 77.4853C74.935 77.6721 75.211 78.4103 74.9005 79.1341C74.9005 79.1341 74.9005 79.1341 74.9005 79.1341L76.8651 79.6979C77.3422 79.8348 77.9134 79.5157 78.141 78.9851L84.362 64.4807C84.5896 63.9501 84.3873 63.409 83.9102 63.2721L81.9456 62.7083C81.6352 63.4321 80.8559 63.8675 80.205 63.6807C79.5541 63.4939 79.2782 62.7557 79.5886 62.0319L77.6241 61.4681C77.147 61.3312 76.5757 61.6503 76.3481 62.1809L70.1271 76.6853Z" fill="#FFA167"/>
<path d="M48.0058 87.0221L47.916 87.0758L58.0034 95.6245C70.9153 82.7512 71.9067 78.5848 71.6214 75.007C71.3066 71.0597 68.3455 67.317 63.0471 75.007C59.5098 80.1411 51.4224 84.9785 48.0058 87.0221Z" fill="#FFBF98"/>
<path d="M135.677 67.464C128.817 67.464 126.093 63.4411 125.589 61.4297C127.203 58.6136 127.607 58.5801 127.607 58.9153L135.677 67.464Z" fill="#3629C4"/>
<path d="M123.572 43.3264C142.132 51.7746 155.515 47.8522 159.886 44.835L178.548 74.0012L182.078 92.1044C180.868 101.759 173.504 106.855 170.478 108.196C162.005 106.185 155.851 101.324 153.834 99.1445L149.799 94.6187C155.851 91.6015 157.364 84.5614 154.842 81.5442C152.321 78.527 148.286 79.5328 145.259 81.5442C142.838 83.1534 142.233 81.5442 142.233 80.5385L143.242 63.4411L135.676 67.464C125.993 63.4411 123.572 49.6961 123.572 43.3264Z" fill="white"/>
<path d="M182.078 92.1044C161.903 77.5213 160.895 54.557 159.886 44.835L183.591 79.0299C183.995 83.0528 183.087 89.4224 182.078 92.1044Z" fill="#877FFA"/>
<path d="M149.798 94.6189C148.508 95.5631 144.897 95.5284 143.242 94.6189C144.684 97.2847 151.172 99.3743 153.833 99.1447L149.798 94.6189Z" fill="#3629C4"/>
<path d="M174.008 26.229C163.114 29.8497 160.054 40.1417 159.886 44.8351C163.753 55.8981 174.008 78.2254 184.096 79.03C196.705 80.0357 211.836 66.4583 208.306 48.3551C204.775 30.252 187.626 21.7032 174.008 26.229Z" fill="white"/>
<path fill-rule="evenodd" clip-rule="evenodd" d="M173.282 26.5556C173.38 26.1556 173.784 25.9103 174.186 26.0077C177.725 26.8668 183.013 28.9966 187.432 32.6179C190.748 35.3353 193.607 38.9219 194.834 43.4604C195.266 39.587 195.326 34.3687 194.004 29.4386C193.898 29.0409 194.135 28.6324 194.534 28.5261C194.932 28.4198 195.342 28.6561 195.449 29.0538C197.04 34.9918 196.717 41.2829 196.087 45.3921C198.332 42.1644 199.933 38.441 200.504 34.1764C200.558 33.7683 200.934 33.4816 201.343 33.536C201.753 33.5904 202.04 33.9653 201.986 34.3734C201.219 40.1079 198.695 44.9028 195.293 48.8415C188.796 56.3628 179.066 60.8011 172.023 62.8253C191.781 65.6603 203.608 54.2848 207.149 47.9904C207.351 47.6314 207.807 47.5036 208.167 47.705C208.527 47.9064 208.656 48.3608 208.454 48.7198C204.588 55.5893 191.74 67.7648 170.446 64.0854C174.144 67.8244 179.482 69.7409 184.939 70.5613C191.111 71.4894 197.304 70.9934 201.101 70.2526C201.506 70.1735 201.899 70.437 201.978 70.841C202.058 71.245 201.793 71.6366 201.388 71.7156C197.452 72.4834 191.085 72.9931 184.716 72.0354C178.36 71.0797 171.869 68.6411 167.865 63.3893C167.71 63.1851 167.67 62.9155 167.761 62.6756C167.852 62.4356 168.06 62.2589 168.312 62.2078C175.003 60.8508 186.523 56.4748 193.874 48.1956C191.872 42.9604 186.573 39.8648 180.468 38.1607C174.236 36.4214 167.374 36.1962 162.969 36.5268C162.557 36.5576 162.198 36.2499 162.167 35.8394C162.136 35.4289 162.445 35.0711 162.856 35.0402C167.387 34.7003 174.43 34.9276 180.871 36.7251C185.898 38.1284 190.69 40.5286 193.548 44.4825C192.524 40.0127 189.784 36.4748 186.483 33.7696C182.27 30.3172 177.198 28.2732 173.832 27.4561C173.431 27.3587 173.185 26.9556 173.282 26.5556ZM156.824 46.2651C157.103 46.4889 157.184 46.8792 157.016 47.1953C155.479 50.0909 152.596 54.5913 148.921 58.7305C145.26 62.8539 140.734 66.7086 135.894 68.1771C135.499 68.297 135.082 68.0749 134.961 67.681C134.841 67.2872 135.064 66.8708 135.459 66.7509C139.9 65.4034 144.2 61.7989 147.802 57.7424C150.2 55.0414 152.254 52.1797 153.797 49.7416C151.48 51.3656 148.475 53.2009 145.041 54.8475C139.804 57.3589 133.52 59.4547 127.126 59.6603C126.714 59.6736 126.368 59.3508 126.355 58.9393C126.342 58.5279 126.665 58.1836 127.078 58.1703C133.193 57.9737 139.266 55.9626 144.393 53.5041C146.44 52.5228 148.328 51.474 149.999 50.4479C147.451 51.049 144.522 51.433 141.521 51.6629C135.131 52.1527 128.333 51.95 124.018 51.6126C123.606 51.5804 123.298 51.2216 123.331 50.8112C123.363 50.4008 123.723 50.0942 124.134 50.1263C128.393 50.4594 135.112 50.659 141.407 50.1765C144.555 49.9353 147.576 49.5249 150.122 48.8833C152.375 48.3153 154.183 47.5836 155.383 46.6842C155.555 46.5447 155.717 46.4095 155.871 46.2791C156.144 46.0472 156.544 46.0413 156.824 46.2651Z" fill="#877FFA"/>
<path d="M55.4814 178.597L81.7087 147.42L146.268 136.859C153.128 135.653 159.886 133.004 162.408 131.831L184.6 162.003L170.478 197.706C145.091 201.059 91.4935 206.456 80.1956 201.226C68.8977 195.997 59.012 183.961 55.4814 178.597Z" fill="#877FFA"/>
<path d="M47.4116 147.979C47.4116 144.688 50.8554 142.524 53.8327 143.944L67.2122 150.324C69.2901 151.315 70.6126 153.407 70.6126 155.703V197.154C70.6126 199.537 67.9467 200.957 65.9597 199.632L52.0596 190.364C49.1552 188.427 47.4116 185.173 47.4116 181.69V147.979Z" fill="#09025D"/>
<path d="M64.5603 231.398C70.6127 210.077 85.5757 193.683 92.3007 188.152L92.805 187.649L146.268 183.626C152.321 187.247 157.869 194.186 159.886 197.203L103.901 272.633C95.8313 271.426 89.7788 268.443 87.7613 267.102L87.257 263.079L86.2482 264.085C73.7398 256.843 66.5778 239.277 64.5603 231.398Z" fill="white"/>
<path d="M66.0734 161.5C64.5854 158.533 57.6672 162.338 55.986 162.506C64.0559 152.951 59.5396 148.761 47.4117 156.471C32.0785 166.22 33.7937 181.112 31.7763 209.272C29.7588 237.433 32.785 258.05 44.8899 268.107C54.5738 276.153 71.7896 271.46 79.1871 268.107L67.0822 239.947H64.056C59.214 241.154 56.3223 235.086 55.4816 231.901C52.6572 221.442 53.6323 199.047 54.4729 189.158C58.0035 183.626 61.0176 182.574 63.5395 179.054C70.4186 172.683 67.3574 170.707 61.522 172.013C62.5307 171.008 67.5614 164.467 66.0734 161.5Z" fill="#FFBF98"/>
<path fill-rule="evenodd" clip-rule="evenodd" d="M59.8659 157.321C60.231 157.513 60.3706 157.964 60.1777 158.328C59.8439 158.958 59.3711 159.703 58.802 160.499C58.9409 160.438 59.0762 160.378 59.2074 160.318C59.5833 160.148 60.0265 160.314 60.1973 160.689C60.3681 161.064 60.2018 161.505 59.8259 161.676C58.9778 162.06 57.9707 162.475 56.9133 162.904C56.1834 163.757 55.3963 164.6 54.5974 165.366C53.4257 166.489 52.1905 167.482 51.037 168.095C49.9318 168.683 48.6574 169.048 47.596 168.457C47.1412 168.203 46.6976 167.778 46.7102 167.136C46.7212 166.579 47.0859 166.137 47.41 165.835C48.0924 165.199 49.2877 164.553 50.6089 163.935C51.957 163.305 53.5366 162.66 55.0572 162.046C55.2014 161.987 55.345 161.929 55.4878 161.872C55.6628 161.801 55.8367 161.731 56.009 161.661C57.2552 160.174 58.2921 158.695 58.8556 157.632C59.0485 157.268 59.5008 157.129 59.8659 157.321ZM53.6019 164.252C52.7717 164.599 51.9709 164.945 51.2436 165.285C49.9103 165.908 48.9198 166.468 48.4316 166.924C48.3435 167.006 48.289 167.069 48.2553 167.113C48.2745 167.126 48.2977 167.14 48.3258 167.156C48.6707 167.348 49.3059 167.326 50.3335 166.78C51.3128 166.259 52.4337 165.372 53.5613 164.291C53.5748 164.278 53.5883 164.265 53.6019 164.252ZM48.1736 167.047C48.1741 167.047 48.1771 167.05 48.181 167.056C48.1751 167.05 48.1731 167.047 48.1736 167.047Z" fill="#09025D"/>
<path fill-rule="evenodd" clip-rule="evenodd" d="M62.771 170.462C60.7957 170.858 58.4639 171.449 56.5736 172.199C55.3583 172.681 54.237 173.262 53.5288 173.958C53.1691 174.312 52.8681 174.742 52.7592 175.251C52.6451 175.784 52.762 176.311 53.0711 176.792C53.3813 177.275 53.8118 177.599 54.3319 177.745C54.8328 177.886 55.3592 177.846 55.8605 177.719C56.8491 177.468 57.9352 176.823 58.9797 176.048C60.5746 174.863 62.2291 173.254 63.5437 171.83C63.9432 171.755 64.3246 171.688 64.6802 171.63C65.0878 171.564 65.3644 171.181 65.2981 170.774C65.2555 170.514 65.0823 170.307 64.8559 170.21C64.9136 169.948 64.8279 169.665 64.6087 169.48C64.2935 169.214 63.8218 169.253 63.5551 169.567C63.316 169.849 63.053 170.15 62.771 170.462ZM60.8997 172.41C59.9937 173.294 59.0235 174.156 58.0867 174.852C57.086 175.595 56.1903 176.097 55.4911 176.275C55.1485 176.362 54.9046 176.357 54.7375 176.31C54.5897 176.269 54.4545 176.182 54.3304 175.988C54.2051 175.793 54.1998 175.663 54.2215 175.562C54.2484 175.436 54.3409 175.254 54.5785 175.02C55.0648 174.542 55.9526 174.05 57.1264 173.584C58.2655 173.133 59.5911 172.737 60.8997 172.41Z" fill="#09025D"/>
<path d="M84.7352 185.135C75.8583 178.698 79.3553 153.287 82.2133 141.385L92.8051 140.883L116.006 144.905L132.146 158.483L124.58 200.724C114.896 214.402 102.724 213.798 97.8488 211.787V197.204L108.945 185.135C104.574 187.817 93.6121 191.571 84.7352 185.135Z" fill="#FFBF98"/>
<path d="M64.0557 239.947C65.2662 239.947 66.5775 238.941 67.0819 238.438C71.5203 252.519 81.7086 261.403 86.2479 264.085C84.634 266.498 80.868 267.772 79.1868 268.108C69.9064 261.269 65.2325 246.484 64.0557 239.947Z" fill="#3629C4"/>
<path d="M124.58 200.724C119.738 195.896 118.192 182.956 118.023 177.089L126.598 194.689C126.598 197.505 125.253 199.885 124.58 200.724Z" fill="#3629C4"/>
<path d="M273.37 193.683C254.405 185.637 230.834 182.62 221.419 182.117L170.478 192.175C163.081 194.689 145.259 202.031 133.155 211.284C121.05 220.536 108.272 257.715 103.397 275.148C117.923 297.676 141.393 293.921 151.312 289.228C175.925 302.504 203.262 289.395 213.854 281.182L227.472 238.941C235.138 244.171 247.479 249.837 252.69 252.016C275.286 234.717 275.891 205.92 273.37 193.683Z" fill="#FFA167"/>
<path fill-rule="evenodd" clip-rule="evenodd" d="M84.6457 229.772C84.9892 230.001 85.0821 230.463 84.853 230.806C83.6329 232.631 81.4716 238.55 83.4452 246.814C84.4545 251.041 85.3727 253.202 86.1608 255.057C86.3446 255.49 86.5213 255.906 86.6904 256.328C87.6114 258.623 88.2534 260.972 88.5084 266.565C88.5271 266.976 88.208 267.325 87.7955 267.343C87.383 267.362 87.0335 267.044 87.0147 266.633C86.7653 261.163 86.1464 258.986 85.3021 256.881C85.1404 256.478 84.9686 256.074 84.7879 255.649C83.9953 253.784 83.0305 251.514 81.9906 247.16C79.9292 238.528 82.1391 232.177 83.6089 229.979C83.838 229.636 84.3021 229.544 84.6457 229.772Z" fill="#09025D"/>
<path fill-rule="evenodd" clip-rule="evenodd" d="M157.494 254.299C157.901 254.371 158.172 254.757 158.101 255.163L152.048 289.358C151.976 289.763 151.589 290.034 151.182 289.962C150.775 289.89 150.504 289.504 150.576 289.098L156.628 254.904C156.7 254.498 157.088 254.228 157.494 254.299Z" fill="#09025D"/>
<path fill-rule="evenodd" clip-rule="evenodd" d="M229.489 223.613C229.902 223.613 230.237 223.947 230.237 224.358C230.237 225.831 229.891 228.611 229.472 231.432C229.051 234.275 228.545 237.225 228.207 239.075C228.134 239.48 227.744 239.748 227.338 239.675C226.932 239.601 226.662 239.213 226.736 238.808C227.071 236.97 227.574 234.037 227.993 231.214C228.415 228.369 228.742 225.701 228.742 224.358C228.742 223.947 229.076 223.613 229.489 223.613Z" fill="#09025D"/>
<path d="M229.489 162.506L216.376 129.317L195.192 130.322L171.487 151.946C170.982 153.454 169.873 158.081 169.469 164.517C169.066 170.954 174.345 172.898 177.035 173.066C176.228 180.71 169.301 193.683 165.939 199.215C163.417 206.255 171.487 221.341 185.609 221.341C196.907 221.341 205.784 212.625 208.81 208.267L209.819 185.135C230.801 183.928 231.675 169.546 229.489 162.506Z" fill="#FFBF98"/>
<path d="M209.617 189.66L209.819 185.135C203.363 185.537 196.369 183.291 193.679 182.117C199.732 186.14 206.759 188.822 209.617 189.66Z" fill="#3629C4"/>
<path d="M97.3442 188.655C101.17 188.323 109.375 186.58 111.893 182.256C111.919 182.209 111.945 182.163 111.971 182.117C111.946 182.164 111.919 182.21 111.893 182.256C109.484 186.501 103.436 195.214 97.8486 197.203L97.3442 188.655Z" fill="#3629C4"/>
<path d="M109.953 153.454L116.006 143.9L100.875 150.94C103.296 153.354 107.936 153.622 109.953 153.454Z" fill="#3629C4"/>
<path d="M107.432 150.94L116.006 144.403V158.986L117.519 159.489C117.856 158.148 119.234 155.566 122.059 155.969C125.589 156.471 127.607 159.489 127.607 163.009C127.607 166.529 124.076 170.049 121.554 170.552C119.537 170.954 117.687 169.378 117.015 168.54C117.015 182.62 125.757 195.192 130.129 199.718L136.685 194.689L132.65 186.643L138.703 193.683L154.338 176.083L148.286 168.037L155.851 174.575C159.886 169.747 163.921 160.83 165.435 156.974L163.417 137.362C154.338 137.362 119.537 125.294 103.397 125.294C90.4851 125.294 81.2047 133.34 78.1785 137.362C81.0029 141.788 86.0803 144.905 88.2659 145.911L92.8052 140.883L89.779 147.42C97.0419 151.04 104.574 151.275 107.432 150.94Z" fill="#FE6677"/>
<path d="M232.011 146.917C232.011 151.36 229.076 154.963 225.455 154.963C221.833 154.963 218.898 151.36 218.898 146.917C218.898 142.473 221.833 138.871 225.455 138.871C229.076 138.871 232.011 142.473 232.011 146.917Z" fill="#FFBF98"/>
<path fill-rule="evenodd" clip-rule="evenodd" d="M220.133 139.185C220.516 139.032 220.951 139.218 221.105 139.6L227.157 154.686C227.311 155.068 227.124 155.502 226.741 155.655C226.357 155.808 225.922 155.622 225.769 155.239L219.717 140.154C219.563 139.771 219.75 139.338 220.133 139.185Z" fill="#09025D"/>
<ellipse cx="301.584" cy="41.3043" rx="15.9943" ry="15.961" fill="#E2E2FE"/>
<path d="M302.029 32.7971V50.6864" stroke="white" stroke-width="2" stroke-linecap="round"/>
<path d="M293.066 41.7419L310.992 41.7419" stroke="white" stroke-width="2" stroke-linecap="round"/>
<path fill-rule="evenodd" clip-rule="evenodd" d="M248.117 81.6528C248.627 83.067 250.189 83.8009 251.606 83.2921L257.442 81.1972C257.442 81.1971 257.442 81.1972 257.442 81.1972C256.746 79.2679 257.75 77.1413 259.683 76.4472C261.616 75.7531 263.747 76.7544 264.443 78.6836C264.443 78.6836 264.443 78.6836 264.443 78.6836L270.278 76.5887C271.695 76.0799 272.43 74.521 271.921 73.1069L257.983 34.4467C257.473 33.0326 255.911 32.2986 254.494 32.8074L248.658 34.9023C249.354 36.8316 248.351 38.9582 246.417 39.6523C244.484 40.3464 242.353 39.3451 241.658 37.4158L235.822 39.5108C234.405 40.0196 233.67 41.5785 234.18 42.9927L248.117 81.6528Z" fill="#FE6677"/>
<path fill-rule="evenodd" clip-rule="evenodd" d="M254.133 63.3922C253.484 64.7487 254.061 66.3729 255.42 67.0199L261.017 69.6841C261.017 69.6841 261.017 69.684 261.017 69.684C261.902 67.8335 264.122 67.0488 265.977 67.9315C267.831 68.8141 268.617 71.0299 267.733 72.8804C267.733 72.8804 267.733 72.8805 267.733 72.8805L273.33 75.5446C274.69 76.1916 276.317 75.6165 276.965 74.2599L294.69 37.1762C295.339 35.8197 294.762 34.1955 293.403 33.5485L287.805 30.8843C286.921 32.7349 284.701 33.5195 282.846 32.6369C280.992 31.7542 280.205 29.5385 281.09 27.6879L275.493 25.0238C274.133 24.3767 272.506 24.9519 271.857 26.3084L254.133 63.3922Z" fill="#FFA167"/>
<path fill-rule="evenodd" clip-rule="evenodd" d="M43.2867 131.373C43.5402 132.157 43.1086 132.997 42.3227 133.25C11.6219 143.123 2.5277 163.187 3.00847 178.046C3.3381 188.235 10.3059 198.491 21.2755 202.566C22.0735 201.309 22.907 200.103 23.7691 198.952C27.1975 194.372 31.1043 190.628 35.0739 188.05C39.0269 185.482 43.1453 184.007 46.9627 184.148C50.622 184.283 53.5326 185.406 55.3706 187.316C57.2477 189.267 57.8422 191.877 57.1124 194.519C55.6876 199.678 49.4162 204.662 38.6128 206.714C32.7908 207.819 27.3979 207.505 22.6015 206.141C17.9891 214.116 14.9163 223.944 15.1139 234.387C15.3628 247.537 18.3486 259.699 24.9102 268.631C31.4234 277.498 41.5677 283.335 56.5284 283.715C59.9106 283.8 64.5557 283.073 70.2344 281.675C75.8887 280.283 82.4694 278.252 89.6859 275.791C102.917 271.279 118.198 265.352 133.702 259.339C135.114 258.792 136.528 258.243 137.943 257.695C154.867 251.137 171.855 244.621 186.448 239.912C193.746 237.557 200.472 235.645 206.31 234.405C212.124 233.17 217.165 232.577 221.051 232.931C230.53 233.793 236.619 236.517 240.574 240.031C244.531 243.547 246.192 247.713 247.077 251.141C247.312 252.047 247.503 252.935 247.652 253.802C253.438 253.542 259.507 253.355 265.696 253.164L266.388 253.142C277.837 252.788 289.686 252.412 300.994 251.535C318.827 250.152 326.953 243.668 330.201 236.575C333.51 229.349 332.009 220.973 329.504 215.415C329.166 214.664 329.502 213.781 330.255 213.444C331.008 213.106 331.893 213.442 332.232 214.193C334.939 220.2 336.716 229.526 332.922 237.813C329.066 246.233 319.708 253.075 301.226 254.508C289.837 255.391 277.919 255.769 266.481 256.122L265.835 256.142C259.698 256.332 253.709 256.517 248.011 256.771C248.425 262.885 246.682 267.93 243.567 271.888C239.586 276.944 233.489 280.068 227.24 281.503C220.995 282.938 214.41 282.73 209.31 280.921C204.224 279.116 200.254 275.538 200.254 270.119C200.254 264.627 204.424 261.151 210.362 258.911C216.34 256.655 224.684 255.403 234.285 254.616C237.584 254.345 241.05 254.129 244.64 253.946C244.516 253.274 244.363 252.587 244.181 251.885C243.378 248.775 241.936 245.235 238.584 242.257C235.231 239.277 229.808 236.721 220.779 235.9C217.347 235.588 212.657 236.106 206.934 237.321C201.235 238.532 194.617 240.41 187.369 242.749C172.872 247.427 155.963 253.911 139.026 260.474C137.609 261.024 136.191 261.574 134.774 262.123C119.286 268.13 103.947 274.079 90.6537 278.612C83.3975 281.087 76.7251 283.148 70.9512 284.569C65.2016 285.985 60.2434 286.791 56.4524 286.695C40.64 286.294 29.6007 280.063 22.4976 270.393C15.4428 260.789 12.3795 247.946 12.124 234.444C11.9192 223.625 15.0256 213.469 19.7157 205.169C7.92436 200.55 0.383121 189.379 0.0195543 178.143C-0.508418 161.824 9.56343 140.653 41.4046 130.412C42.1905 130.159 43.0331 130.59 43.2867 131.373ZM245.024 256.912C241.378 257.095 237.867 257.314 234.53 257.587C224.965 258.372 216.979 259.602 211.42 261.699C205.821 263.812 203.244 266.559 203.244 270.119C203.244 273.752 205.831 276.522 210.312 278.112C214.78 279.697 220.772 279.929 226.569 278.598C232.362 277.267 237.771 274.42 241.214 270.047C243.849 266.701 245.407 262.369 245.024 256.912ZM24.2366 203.488C28.4004 204.541 33.046 204.736 38.0533 203.785C48.4334 201.813 53.2582 197.243 54.2292 193.728C54.6973 192.033 54.3146 190.525 53.2127 189.38C52.0718 188.195 50.0018 187.243 46.852 187.127C43.8605 187.017 40.3503 188.181 36.7062 190.548C33.0787 192.904 29.4199 196.388 26.1655 200.735C25.5035 201.619 24.8594 202.538 24.2366 203.488Z" fill="white"/>
<path d="M317.25 112.219C313.618 109.805 309.684 109.872 308.171 110.208L310.189 175.077C309.256 181.169 308.878 181.822 308.171 183.626C300.505 198.511 282.112 198.544 273.874 196.701C276.698 219.229 267.99 235.924 263.282 241.456C274.177 243.065 288.669 241.456 294.553 240.45C333.39 234.416 352.556 177.592 343.981 149.934C335.407 122.276 321.789 115.236 317.25 112.219Z" fill="#FFBF98"/>
<path d="M330.363 160.997C327.135 163.009 314.728 167.534 310.693 169.546C310.693 173.166 309.18 179.771 308.171 183.626C318.662 178.396 327.337 166.361 330.363 160.997Z" fill="#3629C4"/>
<path d="M258.965 109.755C258.119 105.726 260.71 101.776 264.751 100.933L297.348 94.1338C301.39 93.2908 305.351 95.8739 306.197 99.9033L320.07 166.016C320.915 170.045 318.324 173.995 314.283 174.838L281.686 181.637C277.645 182.48 273.683 179.897 272.837 175.868L258.965 109.755Z" fill="#09025D"/>
<path d="M288.5 133.842C287.693 123.785 302.791 118.756 310.188 117.75L320.276 165.523C300.908 169.948 299.092 161.5 301.11 156.471C298.756 157.309 293.443 157.779 291.022 152.951C288.601 148.124 292.367 142.559 294.553 140.379C290.114 138.77 288.668 135.351 288.5 133.842Z" fill="#FFBF98"/>
<path d="M309.975 117.759L308.375 110.117C310.009 109.803 311.406 110.115 311.9 110.309L309.975 117.759Z" fill="#3629C4"/>
<path d="M173 158.986C174.614 158.181 177.539 158.818 178.548 159.489C178.548 152.951 186.113 139.374 210.323 131.831C229.691 125.797 233.86 115.236 233.524 110.711C233.692 105.682 231.608 95.4234 221.924 94.6188C212.24 93.8143 206.793 99.3123 205.279 102.162C192.368 96.1274 184.432 105.347 182.078 110.711C178.043 109.101 171.991 112.722 169.469 114.733C152.926 130.423 162.576 154.46 169.469 164.517C169.974 161.5 170.982 159.991 173 158.986Z" fill="#09025D"/>
<path fill-rule="evenodd" clip-rule="evenodd" d="M312.012 132.546C312.834 132.754 313.532 133.222 313.898 134.042C314.214 134.751 314.108 135.449 313.703 136.042C313.331 136.589 312.72 137.032 312.026 137.402C310.625 138.149 308.568 138.76 306.289 139.259C302.887 140.005 298.846 140.532 295.4 140.857C294.046 141.85 293.071 142.724 292.639 143.327C292.399 143.662 291.933 143.74 291.597 143.5C291.261 143.261 291.183 142.796 291.423 142.461C291.719 142.047 292.169 141.579 292.732 141.079C292.509 141.095 292.292 141.11 292.08 141.123C291.668 141.15 291.312 140.839 291.285 140.428C291.258 140.017 291.57 139.663 291.982 139.636C292.858 139.579 293.826 139.504 294.853 139.41C295.127 139.214 295.41 139.017 295.701 138.82C297.678 137.48 300.09 136.078 302.489 134.93C304.877 133.787 307.299 132.873 309.285 132.541C310.274 132.376 311.216 132.345 312.012 132.546ZM298.042 139.078C300.71 138.764 303.516 138.341 305.968 137.803C308.219 137.31 310.109 136.733 311.321 136.087C311.932 135.761 312.294 135.457 312.467 135.204C312.607 134.998 312.619 134.844 312.532 134.648C312.393 134.337 312.13 134.114 311.645 133.991C311.135 133.862 310.426 133.863 309.532 134.012C307.75 134.309 305.476 135.154 303.136 136.274C301.384 137.112 299.623 138.092 298.042 139.078Z" fill="#09025D"/>
<path fill-rule="evenodd" clip-rule="evenodd" d="M313.652 148.084C314.357 148.246 314.95 148.652 315.353 149.322C315.749 149.98 315.687 150.679 315.362 151.29C315.058 151.861 314.521 152.379 313.891 152.844C312.622 153.781 310.723 154.684 308.63 155.467C306.454 156.281 303.996 156.994 301.695 157.49C301.28 158.007 300.961 158.467 300.758 158.839C300.561 159.201 300.107 159.334 299.744 159.137C299.381 158.941 299.247 158.488 299.444 158.126C299.486 158.05 299.531 157.972 299.579 157.891C298.266 158.103 297.062 158.222 296.066 158.222C295.653 158.222 295.319 157.889 295.319 157.477C295.319 157.065 295.653 156.732 296.066 156.732C297.342 156.732 299.032 156.514 300.873 156.139C301.305 155.628 301.797 155.092 302.327 154.554C303.628 153.234 305.205 151.85 306.802 150.7C308.385 149.559 310.044 148.607 311.504 148.207C312.236 148.007 312.975 147.929 313.652 148.084ZM303.456 155.536C305.032 155.123 306.629 154.624 308.104 154.071C310.152 153.305 311.898 152.46 313.002 151.646C313.559 151.235 313.89 150.876 314.041 150.592C314.17 150.349 314.147 150.215 314.07 150.089C313.883 149.776 313.636 149.611 313.316 149.537C312.969 149.457 312.499 149.481 311.9 149.645C310.698 149.974 309.211 150.803 307.677 151.908C306.182 152.985 304.693 154.287 303.456 155.536Z" fill="#09025D"/>
<path fill-rule="evenodd" clip-rule="evenodd" d="M205.436 103.293C204.326 105.039 203.627 107.034 203.504 109.243C203.385 111.39 203.838 112.916 204.468 113.856C205.099 114.801 205.867 115.12 206.466 115.06C207.05 115.002 207.735 114.556 208.155 113.403C208.577 112.242 208.693 110.42 208.083 107.866C207.6 105.842 206.655 104.361 205.436 103.293ZM204.226 102.413C202.963 104.369 202.152 106.63 202.011 109.16C201.879 111.54 202.371 113.408 203.223 114.683C204.073 115.954 205.323 116.672 206.615 116.544C207.922 116.413 209.003 115.445 209.56 113.911C210.115 112.385 210.189 110.246 209.538 107.521C208.958 105.094 207.79 103.33 206.308 102.074C207.195 100.965 208.256 99.9763 209.439 99.1187C212.778 96.6975 217.037 95.3641 220.915 95.3641C221.328 95.3641 221.663 95.0303 221.663 94.6187C221.663 94.207 221.328 93.8733 220.915 93.8733C216.723 93.8733 212.156 95.3056 208.56 97.9131C207.262 98.8538 206.085 99.9528 205.097 101.198C204.095 100.581 203 100.142 201.878 99.8446C198.503 98.9518 194.836 99.3232 192.483 99.9315L192.447 99.9408L192.412 99.9536C186.811 102.011 183.576 105.858 182.037 109.895C179.802 109.371 177.167 109.634 174.192 111.043C163.782 115.973 159.739 125.278 159.528 135.32C159.318 145.333 162.902 156.155 167.818 164.395C168.029 164.749 168.488 164.865 168.843 164.655C169.198 164.444 169.314 163.987 169.103 163.633C164.296 155.575 160.82 145.025 161.023 135.352C161.225 125.708 165.069 117.014 174.834 112.389C177.488 111.132 179.731 110.921 181.565 111.317C181.209 112.576 181.007 113.834 180.941 115.045C180.79 117.818 181.345 120.402 182.426 122.195C182.968 123.094 183.665 123.83 184.507 124.262C185.366 124.703 186.336 124.806 187.342 124.497L187.372 124.488L187.4 124.477C189.069 123.811 189.758 122.048 189.801 120.228C189.844 118.376 189.244 116.228 188.071 114.361C187.016 112.682 185.473 111.192 183.46 110.354C184.87 106.71 187.807 103.245 192.894 101.365C195.081 100.806 198.455 100.481 201.494 101.286C202.457 101.54 203.382 101.906 204.226 102.413ZM182.988 111.775C182.672 112.906 182.494 114.036 182.434 115.126C182.295 117.683 182.819 119.952 183.708 121.427C184.151 122.162 184.663 122.665 185.192 122.937C185.696 123.196 186.252 123.264 186.872 123.082C187.71 122.731 188.27 121.741 188.306 120.194C188.341 118.661 187.838 116.797 186.804 115.153C185.901 113.715 184.618 112.481 182.988 111.775Z" fill="#877FFA"/>
<path fill-rule="evenodd" clip-rule="evenodd" d="M153.7 94.7282C153.415 94.4264 152.937 94.4451 152.654 94.7482C152.371 95.0513 152.391 95.5239 152.672 95.8287C154.07 97.3437 154.949 99.2704 155.171 101.33C155.42 103.639 154.826 105.96 153.497 107.867C152.169 109.774 150.195 111.14 147.938 111.713C145.681 112.287 143.292 112.03 141.21 110.989C139.128 109.948 137.492 108.194 136.602 106.048C135.712 103.902 135.628 101.508 136.366 99.3054C137.103 97.1028 138.613 95.2391 140.617 94.0563C142.405 93.0013 144.48 92.5512 146.534 92.761C146.947 92.8032 147.338 92.536 147.413 92.1286C147.487 91.7212 147.216 91.3282 146.803 91.2817C144.392 91.0101 141.951 91.527 139.851 92.7659C137.535 94.1324 135.791 96.2857 134.939 98.8306C134.087 101.376 134.184 104.141 135.212 106.621C136.24 109.1 138.13 111.127 140.536 112.33C142.942 113.532 145.701 113.829 148.309 113.166C150.917 112.504 153.197 110.926 154.733 108.722C156.268 106.519 156.955 103.837 156.667 101.17C156.406 98.7513 155.36 96.4914 153.7 94.7282Z" fill="white"/>
<path d="M67.3142 91.0568C67.3142 90.1674 68.0175 89.278 68.885 89.0703L79.2006 86.6012C80.0681 86.3935 80.7713 86.9462 80.7713 87.8357C80.7713 88.7252 80.0681 89.6146 79.2006 89.8223L68.885 92.2914C68.0175 92.4991 67.3142 91.9463 67.3142 91.0568Z" fill="url(#paint0_linear)"/>
<defs>
<linearGradient id="paint0_linear" x1="73.0597" y1="88.0996" x2="74.4088" y2="91.1084" gradientUnits="userSpaceOnUse">
<stop stop-color="#B776EA"/>
<stop offset="1" stop-color="#E297FF"/>
</linearGradient>
</defs>
</svg>
