<svg width="160" height="50" viewBox="0 0 160 50" fill="none" xmlns="http://www.w3.org/2000/svg">
<path fill-rule="evenodd" clip-rule="evenodd" d="M33.2267 7.7124H36.247C36.5762 7.7124 36.8351 7.98073 36.8351 8.32123V27.8424C36.8351 28.1824 36.5762 28.4507 36.247 28.4507H33.2267C32.8981 28.4507 32.6387 28.1824 32.6387 27.8424V8.32123C32.6387 7.98073 32.8981 7.7124 33.2267 7.7124Z" fill="black"/>
<path fill-rule="evenodd" clip-rule="evenodd" d="M41.5901 11.5189V8.38422C41.5901 8.04372 41.8588 7.77539 42.1879 7.77539H60.0813C60.4099 7.77539 60.6791 8.04372 60.6791 8.38422V11.4366V12.1277C60.6688 12.3438 60.5995 12.4987 60.4699 12.6121L47.3015 24.0795L42.2076 28.4207L41.6196 27.7402L41.6093 23.9148C41.6093 23.6877 41.7291 23.5743 41.8485 23.4402L54.9368 12.1171H42.1875C41.8583 12.1171 41.5896 11.8488 41.5896 11.5189H41.5901Z" fill="black"/>
<path fill-rule="evenodd" clip-rule="evenodd" d="M41.6187 27.8534V24.7187C41.6187 24.3889 41.878 24.1104 42.2072 24.1104H60.041C60.3598 24.1104 60.629 24.3889 60.629 24.7187V27.8534C60.629 28.1837 60.3598 28.4622 60.041 28.4622H42.2072C41.878 28.4622 41.6187 28.1837 41.6187 27.8534Z" fill="black"/>
<path fill-rule="evenodd" clip-rule="evenodd" d="M105.469 7.74414H115.148C116.673 7.74414 119.334 7.88848 121.547 11.044C122.654 12.622 122.784 15.1387 122.764 15.53C122.514 17.7677 121.607 19.7376 119.743 21.3262L122.425 27.6988C122.494 27.8634 122.485 28.0698 122.395 28.2141C122.295 28.3895 122.116 28.4926 121.986 28.4926H118.598C118.478 28.4926 118.348 28.5028 118.219 28.451C118.049 28.389 117.88 28.2446 117.83 28.1003L115.707 22.6349H107.293V27.8838C107.293 28.2141 107.024 28.4926 106.705 28.4926H103.674C103.356 28.4926 103.086 28.2141 103.086 27.8838V8.35248C103.086 8.02216 103.356 7.74414 103.674 7.74414H105.469ZM107.293 18.2835H115.866C116.334 18.2525 117.102 18.036 117.461 17.6955C119.614 15.6744 118.458 12.034 115.148 12.096H107.293V18.2835Z" fill="black"/>
<path fill-rule="evenodd" clip-rule="evenodd" d="M128.884 7.7124H131.914C132.233 7.7124 132.503 7.9909 132.503 8.32123V27.8525C132.503 28.1829 132.233 28.4614 131.914 28.4614H128.884C128.565 28.4614 128.296 28.1829 128.296 27.8525V8.32123C128.296 7.9909 128.565 7.7124 128.884 7.7124Z" fill="black"/>
<path fill-rule="evenodd" clip-rule="evenodd" d="M148.731 12.9311L145.392 20.4797H152.071L148.731 12.9311ZM143.478 24.8209L141.993 28.1624C141.863 28.4714 141.534 28.4927 141.215 28.4927L137.976 28.482C137.816 28.482 137.637 28.3687 137.547 28.2137C137.447 28.049 137.447 27.832 137.517 27.6775L146.19 8.20823C146.299 7.96073 146.568 7.75439 146.907 7.75439H150.396C150.785 7.75439 151.114 7.83673 151.293 8.23923L159.946 27.6775C160.116 28.0384 159.857 28.482 159.518 28.482L156.258 28.4927C155.929 28.4927 155.6 28.4719 155.47 28.1624L153.995 24.8209H143.478H143.478Z" fill="black"/>
<path fill-rule="evenodd" clip-rule="evenodd" d="M28.5315 7.75357H25.4512C25.1221 7.75357 24.8131 7.89791 24.7232 8.22823L20.7562 24.2437L17.1675 8.3314C17.0879 7.94973 16.7391 7.7124 16.4203 7.7124H12.8414C12.6322 7.7124 12.3929 7.82622 12.2337 8.03256C12.1537 8.14589 12.104 8.27957 12.0638 8.44522L7.97694 24.2747L4.14901 8.22872C4.06941 7.89839 3.74027 7.75406 3.4116 7.75406H0.50086C0.17219 7.75406 -0.0572237 8.16672 0.0125368 8.49656L4.42852 27.9659C4.49828 28.255 4.75765 28.4507 5.0367 28.4405L10.7187 28.4512C11.1077 28.4512 11.3268 28.1005 11.4266 27.7087L14.5869 15.6228L17.3576 27.729C17.4573 28.1315 17.8066 28.4304 18.1353 28.4405L23.239 28.4512C23.5682 28.4512 23.9165 28.2347 24.0462 27.729L28.9809 8.49704C29.0605 8.16672 28.8611 7.75454 28.5319 7.75454L28.5315 7.75357Z" fill="black"/>
<path fill-rule="evenodd" clip-rule="evenodd" d="M81.3232 31.4526C84.8922 31.4526 88.1218 29.9574 90.4642 27.5337C92.807 25.1207 94.2523 21.7797 94.2523 18.088C94.2523 14.3958 92.807 11.0547 90.4642 8.63107C88.1218 6.21805 84.8917 4.72287 81.3232 4.72287C77.7645 4.72287 74.525 6.21805 72.192 8.63107C69.8497 11.0547 68.4039 14.3963 68.4039 18.088C68.4039 21.7797 69.8497 25.1202 72.192 27.5337C74.5246 29.9574 77.7645 31.4526 81.3232 31.4526ZM93.6942 30.8752C90.5241 34.1441 86.1577 36.1759 81.3232 36.1759C76.4985 36.1759 72.1326 34.1446 68.9629 30.8752C65.8026 27.6064 63.8489 23.0792 63.8489 18.088C63.8489 13.0972 65.8026 8.56956 68.9629 5.3007C72.1326 2.02118 76.4985 0 81.3232 0C86.1577 0 90.5241 2.02118 93.6942 5.3007C96.854 8.56956 98.8078 13.0972 98.8078 18.088C98.8078 23.0792 96.854 27.6064 93.6942 30.8752Z" fill="#8C64C9"/>
<path fill-rule="evenodd" clip-rule="evenodd" d="M32.4593 44.3745C31.7814 44.3745 31.2233 44.6118 30.7649 45.0758C30.3061 45.5297 30.0771 46.0969 30.0771 46.7672C30.0771 47.4375 30.3066 48.0047 30.7649 48.4687C31.2233 48.9327 31.7814 49.1594 32.4593 49.1594C32.6784 49.1594 32.9078 49.1289 33.1171 49.0567C33.3362 48.9947 33.5057 48.9225 33.6354 48.8402C33.7749 48.7579 33.8948 48.6649 34.0142 48.5622C34.1336 48.4484 34.2136 48.3762 34.2436 48.335C34.2735 48.2939 34.3035 48.2633 34.3232 48.2323L33.8643 47.7679L33.8147 47.8507C33.7745 47.8918 33.715 47.9534 33.6349 48.026C33.5553 48.0977 33.4654 48.1704 33.3559 48.242C33.2562 48.3142 33.1166 48.3762 32.957 48.4174C32.7978 48.4692 32.6283 48.5002 32.4584 48.5002C31.9902 48.5002 31.5913 48.335 31.2724 47.995C30.9438 47.6647 30.7841 47.2525 30.7841 46.7677C30.7841 46.2833 30.9438 45.8808 31.2724 45.5408C31.5917 45.2105 31.9902 45.0458 32.4584 45.0458C32.6283 45.0458 32.7978 45.0662 32.957 45.1175C33.1162 45.1693 33.2463 45.2207 33.3456 45.2827C33.4355 45.3447 33.5352 45.4163 33.6148 45.4992C33.7047 45.5815 33.7543 45.6329 33.7843 45.6638C33.8039 45.6948 33.8245 45.7258 33.8339 45.736L34.2829 45.2715L34.2131 45.179C34.1729 45.117 34.0933 45.0449 33.994 44.9625C33.884 44.8695 33.7646 44.7872 33.6349 44.6942C33.4954 44.6012 33.3259 44.5295 33.1166 44.4675C32.9078 44.4055 32.6878 44.3745 32.4588 44.3745H32.4593ZM49.8943 49.0979H50.5923V44.4467H49.8943V49.0979ZM69.6618 44.4467V47.7984L67.1597 44.4467H66.5516V49.0979H67.2599V45.736L69.762 49.0979H70.3697V44.4467H69.6618ZM87.0368 48.4271V47.004H88.991V46.3337H87.0368V45.1064H89.5093V44.4467H86.3289V49.0974H89.5688V48.4271H87.0368ZM107.552 46.7052L105.817 44.4467H105.21V49.0979H105.907V45.705L107.552 47.8294L109.187 45.705V49.0979H109.895V44.4467H109.287L107.552 46.7052ZM125.336 49.0979H126.073L126.552 47.8705H128.545L129.024 49.0979H129.761L127.907 44.4467H127.199L125.335 49.0979H125.336ZM127.549 45.2715L128.286 47.2002H126.811L127.548 45.2715H127.549Z" fill="black"/>
</svg>
